<svg width="32" height="28" viewBox="0 0 32 28" fill="none" xmlns="http://www.w3.org/2000/svg">
<path d="M8.9497 3.88889H31L28 14H10.5651M29.5 19.7778H11.5L8.5 1H4M4 8.22222H1M5.5 12.5556H1M7 16.8889H1M13 25.5556C13 26.3533 12.3284 27 11.5 27C10.6716 27 10 26.3533 10 25.5556C10 24.7578 10.6716 24.1111 11.5 24.1111C12.3284 24.1111 13 24.7578 13 25.5556ZM29.5 25.5556C29.5 26.3533 28.8284 27 28 27C27.1716 27 26.5 26.3533 26.5 25.5556C26.5 24.7578 27.1716 24.1111 28 24.1111C28.8284 24.1111 29.5 24.7578 29.5 25.5556Z" stroke="#6A6A6A" stroke-width="2" stroke-linecap="round" stroke-linejoin="round"/>
</svg>
