<svg width="47" height="32" viewBox="0 0 47 32" fill="none" xmlns="http://www.w3.org/2000/svg">
<path d="M0 3.79661C0 1.62712 1.54945 0 4.13187 0H42.8681C44.9341 0 47 1.62712 47 3.79661V28.2034C47 30.3729 45.4506 32 42.8681 32H4.13187C2.06593 32 0 30.3729 0 28.2034V3.79661Z" fill="#B3B1B1"/>
<path d="M0 5.96606H46.4835V11.9322H0V5.96606Z" fill="#CFCBCB"/>
<path d="M33.0552 24.4068C33.0552 23.322 34.0881 22.2373 35.1211 22.2373H40.8024C41.8354 22.2373 42.8684 23.322 42.8684 24.4068V26.5763C42.8684 27.661 41.8354 28.7458 40.8024 28.7458H35.1211C34.0881 28.7458 33.0552 27.661 33.0552 26.5763V24.4068Z" fill="white"/>
</svg>
