<svg width="52" height="40" viewBox="0 0 52 40" fill="none" xmlns="http://www.w3.org/2000/svg">
<path d="M0.655096 11.8495C0.280755 9.71258 1.52621 7.84251 4.0699 7.39692L42.2252 0.713064C44.2601 0.356591 46.5758 1.60283 46.9502 3.73978L51.1615 27.7805C51.5358 29.9174 50.2904 31.7875 47.7467 32.2331L9.59142 38.917C7.55648 39.2734 5.24077 38.0272 4.86643 35.8902L0.655096 11.8495Z" fill="#05D950"/>
<path d="M1.02954 13.9866L46.8159 5.96595L47.8453 11.8426L2.05898 19.8632L1.02954 13.9866Z" fill="#5941F1"/>
<path d="M36.7706 26.447C36.5834 25.3785 37.4137 24.1318 38.4312 23.9536L44.0273 22.9733C45.0448 22.7951 46.2494 23.6853 46.4366 24.7538L46.8109 26.8907C46.9981 27.9592 46.1678 29.2059 45.1503 29.3841L39.5542 30.3644C38.5367 30.5427 37.3321 29.6524 37.1449 28.584L36.7706 26.447Z" fill="white"/>
</svg>
