<svg width="30" height="32" viewBox="0 0 30 32" fill="none" xmlns="http://www.w3.org/2000/svg">
<path fill-rule="evenodd" clip-rule="evenodd" d="M23.9215 21.8379H29.8513V19.8767H23.9215V21.8379ZM27.8747 10.0708H0.202515V29.6827C0.202515 30.7652 1.08802 31.6438 2.1791 31.6438H27.8747C28.9658 31.6438 29.8513 30.7652 29.8513 29.6827V23.7991H22.9332C22.3877 23.7991 21.9449 23.3608 21.9449 22.8185V18.8961C21.9449 18.3548 22.3877 17.9155 22.9332 17.9155H29.8513V12.032C29.8513 10.9494 28.9658 10.0708 27.8747 10.0708ZM27.8747 1.24543C27.8747 0.70316 27.6415 0.403087 27.1335 0.204026C26.7421 0.0500727 26.3616 0.14226 25.8981 0.264834L0.202515 8.10959H27.8747V1.24543Z" fill="#6A6A6A"/>
</svg>
