<svg width="40" height="41" viewBox="0 0 40 41" fill="none" xmlns="http://www.w3.org/2000/svg">
<path d="M25.201 0.563259L17.2648 7.28718L18.1175 7.80668L25.1782 1.82439L37.8851 9.84203L31.0158 15.662L31.3705 15.878L31.3988 16.5795L36.7792 12.0208L37.9773 12.7769L31.4676 18.2922L31.5159 19.4932L36.791 15.0238L38.101 15.8505L31.5913 21.3658L31.6396 22.5668L36.9147 18.0973L38.2247 18.924L31.7149 24.4393L31.7633 25.6403L39.9276 18.7229L37.7776 17.3665L39.8039 15.6496L37.6538 14.2929L39.6801 12.576L37.6419 11.2899L39.5878 9.64104L25.2009 0.563263L25.201 0.563259ZM28.0032 5.04149C26.274 6.19427 23.9201 6.47225 22.2248 5.72375L19.0769 8.39085L30.0564 15.0777L33.0421 12.5482C31.781 11.4316 31.8121 9.68855 33.1182 8.26917L28.0031 5.04149L28.0032 5.04149ZM17.1516 9.26912L11.3853 14.2311L23.1339 21.7691L23.2425 21.6775C23.4465 21.504 23.7346 21.2585 24.0782 20.9652C24.7653 20.3791 25.6745 19.6019 26.581 18.8266C27.8867 17.71 28.5594 17.1339 29.1851 16.5983L17.1516 9.26912ZM26.886 8.9975C26.8861 8.9975 26.8862 8.99749 26.8862 8.99749C27.1558 8.98865 27.4057 9.04893 27.5953 9.16854C27.7057 9.23815 27.7926 9.32599 27.8512 9.42705C27.9098 9.52811 27.9389 9.64041 27.9368 9.75753C27.9347 9.87465 27.9014 9.9943 27.839 10.1096C27.7765 10.225 27.686 10.3338 27.5726 10.4298C27.4593 10.5258 27.3254 10.6071 27.1785 10.6692C27.0316 10.7312 26.8746 10.7728 26.7165 10.7914C26.5583 10.8101 26.4022 10.8055 26.2569 10.7779C26.1116 10.7503 25.98 10.7003 25.8697 10.6307C25.6469 10.4901 25.5241 10.2782 25.5284 10.0418C25.5326 9.80527 25.6636 9.56351 25.8924 9.36964C26.0223 9.25952 26.1792 9.16886 26.3512 9.10442C26.5233 9.03998 26.7061 9.00343 26.886 8.9975ZM8.67533 14.5649L0.0725216 21.8535L2.11077 23.1396L0.164873 24.7884L2.31491 26.145L0.288543 27.862L2.43858 29.2186L0.412212 30.9356L14.7991 40.0134L22.9855 33.077L22.9372 31.8763L14.8219 38.7521L2.11505 30.7344L3.2785 29.7486L14.6754 36.9397L22.8619 30.0035L22.8136 28.8028L14.6982 35.6787L1.99139 27.6609L3.15483 26.6752L14.5518 33.8662L22.7382 26.9301L22.6899 25.7294L14.5745 32.6052L1.86772 24.5874L2.95076 23.6696L14.4596 30.9313L22.621 24.0163L22.6002 23.499L22.1254 23.1944L14.482 29.6701L1.77554 21.6525L9.50953 15.0998L8.67523 14.5646L8.67533 14.5649ZM10.4479 15.7024L6.61844 18.9467C7.87955 20.0631 7.8484 21.8062 6.54231 23.2257L11.6575 26.4534C13.3866 25.3005 15.7403 25.0227 17.4356 25.7711L21.1871 22.5926L10.4477 15.7023L10.4479 15.7024ZM29.9456 18.2211C29.2893 18.7828 28.7105 19.2786 27.4682 20.341C26.5616 21.1166 25.6522 21.8938 24.9642 22.481C24.6201 22.7745 24.3313 23.0206 24.1254 23.1953C24.1181 23.2018 24.1151 23.2039 24.1079 23.2101L24.4621 32.0129L30.2926 26.8438L29.9456 18.2211ZM13.0817 20.6933C13.3513 20.6845 13.6012 20.7449 13.7908 20.8646C14.0136 21.0051 14.1363 21.217 14.1321 21.4535C14.1278 21.69 13.9969 21.9317 13.7681 22.1256C13.5393 22.3194 13.2314 22.4495 12.912 22.4871C12.5927 22.5248 12.2882 22.467 12.0654 22.3265C11.8426 22.1859 11.7198 21.974 11.7241 21.7376C11.7283 21.5011 11.8593 21.2593 12.0881 21.0654C12.218 20.9553 12.3749 20.8647 12.5469 20.8003C12.719 20.7359 12.9018 20.6993 13.0817 20.6934L13.0817 20.6933Z" fill="#05D950"/>
</svg>
