<svg width="40" height="41" viewBox="0 0 40 41" fill="none" xmlns="http://www.w3.org/2000/svg">
<path d="M23.5836 0.206284L16.2191 7.55187L17.1111 8.00048L23.6632 1.4651L36.9786 8.42545L30.6042 14.7835L30.9752 14.97L31.0603 15.667L36.0531 10.6868L37.3087 11.3432L31.2678 17.3684L31.4134 18.5615L36.3086 13.6789L37.6813 14.3966L31.6405 20.4218L31.786 21.6149L36.6812 16.7323L38.0539 17.45L32.0131 23.4752L32.1587 24.6683L39.7349 17.1114L37.4819 15.9338L39.3622 14.0582L37.1092 12.8804L38.9895 11.0048L36.8537 9.88824L38.6594 8.08699L23.5835 0.206294L23.5836 0.206284ZM26.7399 4.44242C25.1099 5.73168 22.7863 6.19971 21.0359 5.59121L18.1147 8.5049L29.6005 14.279L32.3712 11.5156C31.0236 10.505 30.9133 8.76515 32.0999 7.24449L26.7398 4.44243L26.7399 4.44242ZM16.267 9.53646L10.9223 14.9498L23.2437 21.5099L23.3445 21.4098C23.5338 21.2204 23.8009 20.9523 24.1197 20.6321C24.7569 19.9921 25.6001 19.1438 26.4408 18.2975C27.6515 17.0786 28.2753 16.4498 28.8554 15.8653L16.267 9.53646ZM25.9473 8.47602C25.9474 8.47601 25.9475 8.476 25.9475 8.47599C26.2155 8.44531 26.4695 8.48512 26.6682 8.58896C26.7838 8.64938 26.8776 8.72988 26.9442 8.82586C27.0108 8.92183 27.0489 9.0314 27.0563 9.1483C27.0637 9.26521 27.0402 9.38716 26.9873 9.50719C26.9344 9.62723 26.853 9.74299 26.7479 9.84787C26.6427 9.95274 26.5158 10.0447 26.3745 10.1184C26.2331 10.1922 26.08 10.2464 25.9239 10.2778C25.7678 10.3092 25.6117 10.3173 25.4647 10.3016C25.3176 10.2859 25.1825 10.2467 25.0668 10.1863C24.8334 10.0642 24.6938 9.86303 24.6789 9.62698C24.6639 9.39093 24.7748 9.13933 24.9872 8.92754C25.1077 8.80725 25.2567 8.70416 25.423 8.62597C25.5892 8.54779 25.7684 8.49653 25.9473 8.47602ZM8.24832 15.5025L0.265163 23.4649L2.40103 24.5815L0.595313 26.3827L2.84832 27.5604L0.967923 29.4361L3.22093 30.6138L1.34053 32.4895L16.4164 40.3702L24.0132 32.7926L23.8676 31.5998L16.3368 39.1113L3.02144 32.1508L4.10108 31.074L16.0438 37.3167L23.6406 29.7393L23.495 28.5465L15.9642 36.058L2.64884 29.0975L3.72848 28.0206L15.6712 34.2634L23.268 26.686L23.1224 25.4932L15.5916 33.0047L2.27624 26.0442L3.28125 25.0415L15.3412 31.3457L22.9148 23.7914L22.852 23.2774L22.3541 23.0124L15.2613 30.0868L1.94626 23.1264L9.12317 15.9679L8.2482 15.5022L8.24832 15.5025ZM10.1073 16.4924L6.55369 20.0367C7.90121 21.0471 8.01158 22.7869 6.82496 24.3078L12.1851 27.1098C13.815 25.8205 16.1384 25.3526 17.8888 25.961L21.3701 22.4886L10.1071 16.4923L10.1073 16.4924ZM29.745 17.421C29.1365 18.0341 28.5998 18.5752 27.4479 19.7349C26.6072 20.5815 25.7638 21.4299 25.1257 22.071C24.8065 22.3914 24.5387 22.6601 24.3477 22.851C24.3409 22.858 24.338 22.8604 24.3314 22.8671L25.3985 31.6122L30.7905 25.9871L29.745 17.421ZM13.1373 21.2532C13.4053 21.2225 13.6593 21.2624 13.858 21.3663C14.0914 21.4884 14.231 21.6896 14.2459 21.9256C14.2609 22.1617 14.15 22.4133 13.9377 22.625C13.7253 22.8368 13.429 22.9914 13.1138 23.0548C12.7986 23.1183 12.4904 23.0854 12.2569 22.9634C12.0234 22.8414 11.8839 22.6402 11.8689 22.4041C11.854 22.1681 11.9649 21.9165 12.1772 21.7047C12.2978 21.5844 12.4468 21.4813 12.613 21.4032C12.7793 21.325 12.9585 21.2738 13.1373 21.2533L13.1373 21.2532Z" fill="#8C8B8B"/>
</svg>
