<svg width="41" height="37" viewBox="0 0 41 37" fill="none" xmlns="http://www.w3.org/2000/svg">
<path d="M31.9371 28.3127C31.1654 28.3143 30.4009 28.1745 29.6879 27.9014C28.9748 27.6284 28.3272 27.2274 27.7826 26.7217L21.7821 21.1717C21.5697 20.985 21.2879 20.881 20.9949 20.881C20.7019 20.881 20.4202 20.985 20.2077 21.1717L14.1844 26.7428C13.64 27.2488 12.9924 27.6499 12.2793 27.923C11.5662 28.1961 10.8017 28.3357 10.0299 28.3338H8.84692L16.4475 35.3638C18.8191 37.5574 22.6679 37.5574 25.0395 35.3638L32.6601 28.3127H31.9371ZM10.0299 8.6815C11.6014 8.6815 13.0758 9.24708 14.1844 10.2725L20.2077 15.8437C20.3112 15.9396 20.4342 16.0156 20.5695 16.0675C20.7048 16.1194 20.8499 16.1462 20.9964 16.1462C21.1429 16.1462 21.2879 16.1194 21.4232 16.0675C21.5586 16.0156 21.6815 15.9396 21.785 15.8437L27.7854 10.2937C28.3296 9.78802 28.9766 9.38709 29.6892 9.11402C30.4018 8.84094 31.1658 8.70113 31.9371 8.70265H32.6601L25.0395 1.65413C23.8999 0.600754 22.3546 0.0090332 20.7435 0.0090332C19.1323 0.0090332 17.5871 0.600754 16.4475 1.65413L8.84692 8.68415L10.0299 8.6815Z" fill="#8C8A8A"/>
<path d="M38.9662 14.5329L34.3601 10.2727C34.2567 10.3119 34.1462 10.3326 34.0344 10.3334H31.94C30.857 10.3334 29.7969 10.7404 29.034 11.4487L23.0336 16.9987C22.7668 17.2469 22.4495 17.4437 22.1001 17.5781C21.7508 17.7124 21.3761 17.7816 20.9977 17.7816C20.6194 17.7816 20.2447 17.7124 19.8953 17.5781C19.546 17.4437 19.2287 17.2469 18.9619 16.9987L12.9386 11.4249C12.1658 10.7131 11.1204 10.3123 10.0298 10.3097H7.45821C7.3516 10.3089 7.24605 10.2901 7.14676 10.2542L2.52357 14.5329C0.151974 16.7265 0.151974 20.2865 2.52357 22.4827L7.14676 26.7588C7.24495 26.7223 7.34952 26.7026 7.45535 26.7007H10.0298C11.1156 26.7007 12.1728 26.2963 12.9386 25.588L18.959 20.0142C19.5084 19.5305 20.2378 19.2607 20.9963 19.2607C21.7548 19.2607 22.4843 19.5305 23.0336 20.0142L29.034 25.5643C29.7969 26.2725 30.857 26.6769 31.94 26.6769H34.0344C34.1487 26.6769 34.2601 26.7033 34.3601 26.7403L38.9662 22.48C41.3378 20.2865 41.3378 16.7265 38.9662 14.5329Z" fill="#8C8A8A"/>
</svg>
