<svg width="46" height="44" viewBox="0 0 46 44" fill="none" xmlns="http://www.w3.org/2000/svg">
<path d="M32.1922 33.0039C31.4304 32.8798 30.6989 32.6174 30.0398 32.2319C29.3807 31.8464 28.8071 31.3454 28.352 30.7577L23.3351 24.3049C23.1559 24.0862 22.8948 23.9376 22.6057 23.89C22.3167 23.8423 22.0217 23.8991 21.7817 24.0486L14.9318 28.5649C14.3122 28.9755 13.6081 29.2658 12.86 29.4192C12.112 29.5725 11.3349 29.5859 10.5737 29.4584L9.40651 29.2658L15.7612 37.4394C17.7441 39.9897 21.5416 40.6163 24.2387 38.8381L32.9054 33.1215L32.1922 33.0039ZM13.7729 10.0682C15.3235 10.324 16.6862 11.1221 17.6131 12.3143L22.6491 18.7917C22.7356 18.9032 22.8445 18.9982 22.9696 19.0715C23.0946 19.1447 23.2334 19.1947 23.3779 19.2185C23.5225 19.2424 23.67 19.2396 23.8119 19.2105C23.9539 19.1813 24.0876 19.1262 24.2053 19.0485L31.0292 14.5493C31.6484 14.139 32.3521 13.8488 33.0996 13.6953C33.8472 13.5419 34.6237 13.5283 35.3845 13.6554L36.0978 13.7731L29.7264 5.57803C28.7734 4.35318 27.3451 3.5178 25.7554 3.25552C24.1658 2.99324 22.5448 3.32551 21.2489 4.17931L12.6053 9.87824L13.7729 10.0682Z" fill="#05D950"/>
<path d="M41.3706 20.5523L37.5195 15.599C37.4111 15.6209 37.2987 15.6232 37.1883 15.6059L35.1218 15.265C34.0533 15.0887 32.9411 15.3177 32.073 15.8923L25.2492 20.3915C24.9455 20.5928 24.6004 20.7354 24.2338 20.8111C23.8672 20.8868 23.4863 20.8941 23.113 20.8325C22.7397 20.7709 22.3813 20.6416 22.0584 20.4522C21.7356 20.2628 21.4546 20.0169 21.2317 19.7286L16.1962 13.2486C15.5496 12.4205 14.5834 11.8548 13.5078 11.6747L10.9705 11.256C10.8654 11.2379 10.7643 11.2022 10.6722 11.1506L5.41413 14.6197C2.71707 16.3979 2.13754 19.9104 4.11997 22.4634L7.98536 27.4351C8.08819 27.415 8.19458 27.4126 8.2993 27.428L10.8394 27.8471C11.9107 28.0238 13.0197 27.797 13.8905 27.2228L20.738 22.7034C21.3588 22.3155 22.1224 22.1681 22.8708 22.2915C23.6192 22.415 24.295 22.8 24.7583 23.3667L29.7751 29.8195C30.4126 30.6426 31.3927 31.2141 32.4612 31.3904L34.5277 31.7314C34.6404 31.75 34.7461 31.7942 34.8387 31.847L40.0769 28.3933C42.7739 26.6151 43.3535 23.1027 41.3706 20.5523Z" fill="#05D950"/>
</svg>
